<svg width="100" height="100" viewBox="0 0 100 100" fill="none" xmlns="http://www.w3.org/2000/svg">
<path fill-rule="evenodd" clip-rule="evenodd" d="M100 50.002C99.6684 67.949 98.1351 82.2754 90.0316 90.0316C82.2754 98.1351 67.949 99.6684 50.002 100C32.0549 99.6684 17.7285 98.1351 9.9723 90.0316C1.86883 82.2754 0.33163 67.949 0 50.002C0.335531 32.0549 1.86883 17.7285 9.9723 9.9684C17.7285 1.86883 32.051 0.335531 50.002 0C67.949 0.335531 82.2754 1.86883 90.0316 9.9723C98.1312 17.7285 99.6684 32.051 100 50.002Z" fill="#CF2228"/>
<path d="M36.2841 47.5985L36.2334 59.3031C36.2336 59.6949 36.3166 60.0823 36.477 60.4399C36.6373 60.7974 36.8714 61.1171 37.1638 61.3778C37.4563 61.6386 37.8006 61.8347 38.1741 61.9532C38.5476 62.0716 38.9419 62.1099 39.3312 62.0654C40.0183 61.9766 40.6488 61.6387 41.1033 61.1159C41.5578 60.5931 41.8046 59.9217 41.797 59.229V42.667C41.797 41.5433 41.3506 40.4655 40.556 39.6709C39.7614 38.8763 38.6837 38.4299 37.5599 38.4299C36.7224 38.4331 35.9047 38.6847 35.2102 39.1528C34.5157 39.6209 33.9757 40.2845 33.6584 41.0596L28.7698 53.3689C28.7548 53.4072 28.7284 53.44 28.6943 53.463C28.6601 53.486 28.6198 53.4981 28.5786 53.4976C28.5376 53.4976 28.4975 53.4853 28.4634 53.4624C28.4294 53.4394 28.4029 53.4069 28.3875 53.3689L23.5145 41.0596C23.1972 40.2845 22.6572 39.6209 21.9627 39.1528C21.2682 38.6847 20.4504 38.4331 19.6129 38.4299C18.4892 38.4299 17.4115 38.8763 16.6169 39.6709C15.8223 40.4655 15.3759 41.5433 15.3759 42.667V59.2173C15.3691 59.9097 15.6162 60.5807 16.0706 61.1033C16.5249 61.626 17.155 61.964 17.8416 62.0537C18.2328 62.1018 18.6296 62.0662 19.006 61.9493C19.3823 61.8325 19.7296 61.637 20.0247 61.3758C20.3198 61.1147 20.556 60.7938 20.7177 60.4344C20.8795 60.0751 20.963 59.6855 20.9629 59.2914V47.4698L26.0621 60.4736C26.3037 60.9561 26.673 61.3633 27.1297 61.6508C27.5864 61.9383 28.1132 62.0952 28.6528 62.1044C29.2341 62.1143 29.804 61.9426 30.283 61.6132C30.7621 61.2838 31.1265 60.8131 31.3253 60.2668L36.2841 47.5985Z" fill="white"/>
<path d="M83.5902 42.3393C82.8912 41.1148 81.8553 40.1168 80.6056 39.4639C79.185 38.7457 77.6087 38.3905 76.0174 38.43H69.8373C68.8902 38.431 67.9822 38.808 67.3128 39.4781C66.6434 40.1482 66.2675 41.0566 66.2675 42.0038V59.2134C66.2675 59.9712 66.5682 60.698 67.1037 61.2342C67.6392 61.7704 68.3656 62.0722 69.1234 62.0732C69.8812 62.0722 70.6076 61.7704 71.143 61.2342C71.6785 60.698 71.9793 59.9712 71.9793 59.2134V54.7266H75.8574C77.4752 54.7661 79.0795 54.4226 80.5392 53.7239C81.8084 53.0968 82.8653 52.1105 83.5785 50.8875C84.3164 49.5799 84.6858 48.0968 84.6475 46.5959C84.6738 45.1089 84.3092 43.6411 83.5902 42.3393ZM78.2685 48.5154C77.9652 49.0605 77.5042 49.5011 76.9459 49.7795C76.2703 50.0998 75.5278 50.2537 74.7806 50.2282H71.9637V43.0377H74.7806C75.524 43.0133 76.2628 43.1629 76.9381 43.4746C77.4979 43.7427 77.9621 44.1756 78.2685 44.7153C78.58 45.2992 78.7346 45.9539 78.7172 46.6154C78.7327 47.2767 78.5782 47.9309 78.2685 48.5154Z" fill="white"/>
<path d="M60.2863 56.7868C60.2395 56.7868 60.1927 56.7868 60.1459 56.7868H53.8059L55.9673 54.8985C57.4067 53.69 58.7636 52.3866 60.0288 50.9969C60.8452 50.1089 61.5143 49.096 62.0108 47.9967C62.3695 47.1306 62.5563 46.203 62.5609 45.2656C62.5918 43.8906 62.2054 42.5386 61.4529 41.3875C60.676 40.253 59.5939 39.3617 58.3317 38.8164C56.8148 38.1755 55.179 37.8643 53.5328 37.9034C51.9176 37.8646 50.3152 38.1997 48.851 38.8827C47.5704 39.4908 46.4971 40.4623 45.7648 41.6762L45.7024 41.7854C45.5739 41.965 45.4666 42.1587 45.3825 42.3629C45.3825 42.4097 45.3474 42.4604 45.3318 42.5072C45.3162 42.554 45.3045 42.5852 45.2928 42.6243C45.2665 42.7034 45.2456 42.7842 45.2303 42.8662C45.2285 42.8791 45.2285 42.8922 45.2303 42.9052C45.2303 42.9832 45.1991 43.0612 45.1913 43.1393C45.1789 43.252 45.1724 43.3653 45.1718 43.4787C45.1732 44.1674 45.4159 44.8338 45.8576 45.3621C46.2994 45.8904 46.9123 46.2473 47.5898 46.3706C48.2674 46.494 48.9667 46.3761 49.5663 46.0373C50.1659 45.6986 50.6279 45.1605 50.8719 44.5165C50.8876 44.4953 50.9019 44.4732 50.9149 44.4502L50.9851 44.3097C51.2093 43.8611 51.5644 43.491 52.0034 43.2485C52.4783 43.0136 53.001 42.8914 53.5308 42.8914C54.0607 42.8914 54.5834 43.0136 55.0583 43.2485C55.4951 43.4769 55.8568 43.8264 56.1 44.2551C56.3642 44.7323 56.4987 45.2704 56.4901 45.8157C56.4955 46.3427 56.3821 46.864 56.1585 47.3412C55.9122 47.8316 55.5925 48.2816 55.2104 48.6755C54.7995 49.1047 54.3105 49.5651 53.7435 50.0567L46.155 56.5254C45.8289 56.8036 45.5672 57.1494 45.388 57.5388C45.2088 57.9282 45.1164 58.3518 45.1172 58.7805V59.1043C45.1172 59.8918 45.43 60.6469 45.9868 61.2037C46.5436 61.7606 47.2988 62.0734 48.0863 62.0734H60.2824C60.6381 62.087 60.9929 62.0288 61.3255 61.9021C61.6581 61.7754 61.9617 61.5829 62.2182 61.3361C62.4747 61.0893 62.6787 60.7933 62.818 60.4658C62.9574 60.1383 63.0292 59.786 63.0292 59.4301C63.0292 59.0742 62.9574 58.7219 62.818 58.3944C62.6787 58.0669 62.4747 57.7708 62.2182 57.524C61.9617 57.2772 61.6581 57.0847 61.3255 56.9581C60.9929 56.8314 60.6381 56.7731 60.2824 56.7868H60.2863Z" fill="white"/>
</svg>
